<svg width="15" height="20" viewBox="0 0 15 20" fill="none" xmlns="http://www.w3.org/2000/svg">
<path d="M12.7273 0L2 0C1.46957 0 0.960859 0.210714 0.585786 0.585786C0.210714 0.960859 0 1.46957 0 2V18C0 18.5304 0.210714 19.0391 0.585786 19.4142C0.960859 19.7893 1.46957 20 2 20H12.7273C13.2577 20 13.7664 19.7893 14.1415 19.4142C14.5166 19.0391 14.7273 18.5304 14.7273 18V2C14.7273 1.46957 14.5166 0.960859 14.1415 0.585786C13.7664 0.210714 13.2577 0 12.7273 0ZM13.6364 18C13.6364 18.2411 13.5406 18.4723 13.3701 18.6428C13.1996 18.8133 12.9684 18.9091 12.7273 18.9091H2C1.75889 18.9091 1.52766 18.8133 1.35718 18.6428C1.18669 18.4723 1.09091 18.2411 1.09091 18V2C1.09091 1.75889 1.18669 1.52766 1.35718 1.35718C1.52766 1.18669 1.75889 1.09091 2 1.09091H12.7273C12.9684 1.09091 13.1996 1.18669 13.3701 1.35718C13.5406 1.52766 13.6364 1.75889 13.6364 2V18ZM11.8182 3.45455C11.8182 3.59921 11.7607 3.73795 11.6584 3.84024C11.5561 3.94253 11.4174 4 11.2727 4H3.45455C3.30988 4 3.17114 3.94253 3.06885 3.84024C2.96656 3.73795 2.90909 3.59921 2.90909 3.45455C2.90909 3.30988 2.96656 3.17114 3.06885 3.06885C3.17114 2.96656 3.30988 2.90909 3.45455 2.90909H11.2727C11.4174 2.90909 11.5561 2.96656 11.6584 3.06885C11.7607 3.17114 11.8182 3.30988 11.8182 3.45455Z" fill="#335341"/>
</svg>
