<svg width="20" height="20" viewBox="0 0 20 20" fill="none" xmlns="http://www.w3.org/2000/svg">
<path d="M10 0C7.34873 0.0029116 4.80688 1.05742 2.93215 2.93215C1.05742 4.80688 0.0029116 7.34873 0 10V18.4C0 18.8243 0.168571 19.2313 0.468629 19.5314C0.768687 19.8314 1.17565 20 1.6 20H10C12.6522 20 15.1957 18.9464 17.0711 17.0711C18.9464 15.1957 20 12.6522 20 10C20 7.34784 18.9464 4.8043 17.0711 2.92893C15.1957 1.05357 12.6522 0 10 0ZM10 18.4H1.6V10C1.6 8.33864 2.09265 6.71458 3.01566 5.33321C3.93866 3.95184 5.25056 2.87519 6.78546 2.23941C8.32036 1.60364 10.0093 1.43729 11.6388 1.7614C13.2682 2.08552 14.7649 2.88554 15.9397 4.0603C17.1145 5.23506 17.9145 6.7318 18.2386 8.36124C18.5627 9.99068 18.3964 11.6796 17.7606 13.2145C17.1248 14.7494 16.0482 16.0613 14.6668 16.9843C13.2854 17.9073 11.6614 18.4 10 18.4ZM11.2 10.4C11.2 10.6373 11.1296 10.8693 10.9978 11.0667C10.8659 11.264 10.6785 11.4178 10.4592 11.5087C10.2399 11.5995 9.99867 11.6232 9.76589 11.5769C9.53312 11.5306 9.31929 11.4164 9.15147 11.2485C8.98365 11.0807 8.86936 10.8669 8.82306 10.6341C8.77676 10.4013 8.80052 10.1601 8.89135 9.94078C8.98217 9.72151 9.13598 9.53409 9.33332 9.40224C9.53065 9.27038 9.76266 9.2 10 9.2C10.3183 9.2 10.6235 9.32643 10.8485 9.55147C11.0736 9.77652 11.2 10.0817 11.2 10.4ZM6.8 10.4C6.8 10.6373 6.72962 10.8693 6.59776 11.0667C6.46591 11.264 6.27849 11.4178 6.05922 11.5087C5.83995 11.5995 5.59867 11.6232 5.36589 11.5769C5.13311 11.5306 4.91929 11.4164 4.75147 11.2485C4.58365 11.0807 4.46936 10.8669 4.42306 10.6341C4.37676 10.4013 4.40052 10.1601 4.49134 9.94078C4.58217 9.72151 4.73598 9.53409 4.93332 9.40224C5.13066 9.27038 5.36266 9.2 5.6 9.2C5.91826 9.2 6.22348 9.32643 6.44853 9.55147C6.67357 9.77652 6.8 10.0817 6.8 10.4ZM15.6 10.4C15.6 10.6373 15.5296 10.8693 15.3978 11.0667C15.2659 11.264 15.0785 11.4178 14.8592 11.5087C14.6399 11.5995 14.3987 11.6232 14.1659 11.5769C13.9331 11.5306 13.7193 11.4164 13.5515 11.2485C13.3836 11.0807 13.2694 10.8669 13.2231 10.6341C13.1768 10.4013 13.2005 10.1601 13.2913 9.94078C13.3822 9.72151 13.536 9.53409 13.7333 9.40224C13.9307 9.27038 14.1627 9.2 14.4 9.2C14.7183 9.2 15.0235 9.32643 15.2485 9.55147C15.4736 9.77652 15.6 10.0817 15.6 10.4Z" fill="#177333"/>
</svg>
