<svg width="18" height="18" viewBox="0 0 18 18" fill="none" xmlns="http://www.w3.org/2000/svg">
<path d="M3.97675 1.74764e-06C3.19022 1.74764e-06 2.42136 0.233234 1.76739 0.670204C1.11341 1.10717 0.603704 1.72826 0.302713 2.45491C0.00172305 3.18157 -0.0770297 3.98116 0.0764138 4.75257C0.229857 5.52398 0.608606 6.23257 1.16476 6.78873C1.72092 7.34488 2.42951 7.72363 3.20092 7.87708C3.97233 8.03052 4.77192 7.95177 5.49858 7.65078C6.22523 7.34979 6.84632 6.84008 7.28329 6.18611C7.72026 5.53213 7.95349 4.76327 7.95349 3.97675C7.95349 2.92205 7.53451 1.91055 6.78873 1.16476C6.04294 0.418979 5.03144 1.74764e-06 3.97675 1.74764e-06ZM3.97675 6.69767C3.4386 6.69767 2.91253 6.5381 2.46508 6.23912C2.01762 5.94014 1.66887 5.51518 1.46293 5.018C1.25699 4.52081 1.20311 3.97373 1.3081 3.44592C1.41309 2.91811 1.67223 2.43329 2.05276 2.05276C2.43329 1.67223 2.91811 1.41309 3.44592 1.3081C3.97373 1.20311 4.52081 1.25699 5.018 1.46293C5.51518 1.66887 5.94014 2.01762 6.23912 2.46508C6.5381 2.91253 6.69767 3.4386 6.69767 3.97675C6.69767 4.33406 6.6273 4.68788 6.49056 5.018C6.35382 5.34812 6.15339 5.64807 5.90073 5.90073C5.64807 6.15339 5.34812 6.35382 5.018 6.49056C4.68788 6.6273 4.33406 6.69767 3.97675 6.69767ZM14.0233 7.95349C14.8098 7.95349 15.5786 7.72026 16.2326 7.28329C16.8866 6.84632 17.3963 6.22523 17.6973 5.49858C17.9983 4.77192 18.077 3.97233 17.9236 3.20092C17.7701 2.42951 17.3914 1.72092 16.8352 1.16476C16.2791 0.608606 15.5705 0.229857 14.7991 0.0764138C14.0277 -0.0770297 13.2281 0.00172305 12.5014 0.302713C11.7748 0.603704 11.1537 1.11341 10.7167 1.76739C10.2797 2.42136 10.0465 3.19022 10.0465 3.97675C10.0465 5.03144 10.4655 6.04294 11.2113 6.78873C11.9571 7.53451 12.9686 7.95349 14.0233 7.95349ZM14.0233 1.25582C14.5614 1.25582 15.0875 1.4154 15.5349 1.71437C15.9824 2.01335 16.3311 2.43831 16.5371 2.93549C16.743 3.43268 16.7969 3.97976 16.6919 4.50757C16.5869 5.03538 16.3278 5.5202 15.9472 5.90073C15.5667 6.28126 15.0819 6.54041 14.5541 6.64539C14.0263 6.75038 13.4792 6.6965 12.982 6.49056C12.4848 6.28462 12.0599 5.93587 11.7609 5.48841C11.4619 5.04096 11.3023 4.51489 11.3023 3.97675C11.3023 3.25511 11.589 2.56303 12.0993 2.05276C12.6095 1.54248 13.3016 1.25582 14.0233 1.25582ZM3.97675 10.0465C3.19022 10.0465 2.42136 10.2797 1.76739 10.7167C1.11341 11.1537 0.603704 11.7748 0.302713 12.5014C0.00172305 13.2281 -0.0770297 14.0277 0.0764138 14.7991C0.229857 15.5705 0.608606 16.2791 1.16476 16.8352C1.72092 17.3914 2.42951 17.7701 3.20092 17.9236C3.97233 18.077 4.77192 17.9983 5.49858 17.6973C6.22523 17.3963 6.84632 16.8866 7.28329 16.2326C7.72026 15.5786 7.95349 14.8098 7.95349 14.0233C7.95349 12.9686 7.53451 11.9571 6.78873 11.2113C6.04294 10.4655 5.03144 10.0465 3.97675 10.0465ZM3.97675 16.7442C3.4386 16.7442 2.91253 16.5846 2.46508 16.2856C2.01762 15.9866 1.66887 15.5617 1.46293 15.0645C1.25699 14.5673 1.20311 14.0202 1.3081 13.4924C1.41309 12.9646 1.67223 12.4798 2.05276 12.0993C2.43329 11.7187 2.91811 11.4596 3.44592 11.3546C3.97373 11.2496 4.52081 11.3035 5.018 11.5094C5.51518 11.7154 5.94014 12.0641 6.23912 12.5116C6.5381 12.959 6.69767 13.4851 6.69767 14.0233C6.69767 14.3806 6.6273 14.7344 6.49056 15.0645C6.35382 15.3946 6.15339 15.6946 5.90073 15.9472C5.64807 16.1999 5.34812 16.4003 5.018 16.5371C4.68788 16.6738 4.33406 16.7442 3.97675 16.7442ZM18 14.0233C18 14.1898 17.9338 14.3495 17.8161 14.4673C17.6983 14.585 17.5386 14.6512 17.3721 14.6512H14.6512V17.3721C14.6512 17.5386 14.585 17.6983 14.4673 17.8161C14.3495 17.9338 14.1898 18 14.0233 18C13.8567 18 13.697 17.9338 13.5793 17.8161C13.4615 17.6983 13.3953 17.5386 13.3953 17.3721V14.6512H10.6744C10.5079 14.6512 10.3482 14.585 10.2304 14.4673C10.1127 14.3495 10.0465 14.1898 10.0465 14.0233C10.0465 13.8567 10.1127 13.697 10.2304 13.5793C10.3482 13.4615 10.5079 13.3953 10.6744 13.3953H13.3953V10.6744C13.3953 10.5079 13.4615 10.3482 13.5793 10.2304C13.697 10.1127 13.8567 10.0465 14.0233 10.0465C14.1898 10.0465 14.3495 10.1127 14.4673 10.2304C14.585 10.3482 14.6512 10.5079 14.6512 10.6744V13.3953H17.3721C17.5386 13.3953 17.6983 13.4615 17.8161 13.5793C17.9338 13.697 18 13.8567 18 14.0233Z" fill="#082F19" fill-opacity="0.8"/>
</svg>
