<svg width="24" height="22" viewBox="0 0 24 22" fill="none" xmlns="http://www.w3.org/2000/svg">
<path d="M23.5282 10.6105C17.3622 10.9009 12.4291 15.834 12.1387 22C18.3047 21.7096 23.2378 16.7765 23.5282 10.6105Z" fill="#177333"/>
<path d="M5.361 2.65197C8.89707 -0.884 14.6316 -0.883981 18.1677 2.65197C20.2763 4.76057 21.1267 7.65063 20.7206 10.3904C18.8729 10.9169 17.1961 11.8485 15.7912 13.0821L14.2653 11.5563C15.4305 10.9108 15.9577 9.16298 12.8718 8.43561C18.6674 9.80392 16.0917 1.6339 12.4493 7.10739C16.0916 1.63382 7.52919 1.56349 11.0506 7.09738C7.52898 1.55363 4.80241 9.68315 10.6078 8.4156C4.80246 9.67342 11.6847 14.7745 11.7249 9.24054H11.735C11.7161 11.8375 13.2384 12.125 14.2653 11.5563L15.7912 13.0821C13.8176 14.8151 12.3808 17.1449 11.7642 19.79C10.7087 15.2618 7.25093 11.6563 2.80736 10.3904C2.40124 7.65061 3.25221 4.76029 5.36075 2.65172L5.361 2.65197Z" fill="#177333"/>
<path d="M0 10.6105C6.16596 10.9009 11.0991 15.834 11.3895 22C5.22355 21.7096 0.290394 16.7765 0 10.6105Z" fill="#177333"/>
</svg>
