<svg width="22" height="20" viewBox="0 0 22 20" fill="none" xmlns="http://www.w3.org/2000/svg">
<path d="M19.3617 0H2.34043C1.71971 0 1.12441 0.24658 0.685495 0.685495C0.24658 1.12441 0 1.71971 0 2.34043V14.2553C0 14.876 0.24658 15.4713 0.685495 15.9103C1.12441 16.3492 1.71971 16.5957 2.34043 16.5957H19.3617C19.9824 16.5957 20.5777 16.3492 21.0166 15.9103C21.4555 15.4713 21.7021 14.876 21.7021 14.2553V2.34043C21.7021 1.71971 21.4555 1.12441 21.0166 0.685495C20.5777 0.24658 19.9824 0 19.3617 0ZM20.4255 14.2553C20.4255 14.5375 20.3135 14.8081 20.1139 15.0076C19.9144 15.2071 19.6438 15.3191 19.3617 15.3191H2.34043C2.05828 15.3191 1.78769 15.2071 1.58818 15.0076C1.38868 14.8081 1.2766 14.5375 1.2766 14.2553V2.34043C1.2766 2.05828 1.38868 1.78769 1.58818 1.58818C1.78769 1.38868 2.05828 1.2766 2.34043 1.2766H19.3617C19.6438 1.2766 19.9144 1.38868 20.1139 1.58818C20.3135 1.78769 20.4255 2.05828 20.4255 2.34043V14.2553ZM14.8936 19.3617C14.8936 19.531 14.8264 19.6933 14.7067 19.813C14.587 19.9328 14.4246 20 14.2553 20H7.44681C7.27752 20 7.11517 19.9328 6.99546 19.813C6.87576 19.6933 6.80851 19.531 6.80851 19.3617C6.80851 19.1924 6.87576 19.0301 6.99546 18.9104C7.11517 18.7907 7.27752 18.7234 7.44681 18.7234H14.2553C14.4246 18.7234 14.587 18.7907 14.7067 18.9104C14.8264 19.0301 14.8936 19.1924 14.8936 19.3617Z" fill="#335341"/>
</svg>
