<svg width="24" height="20" viewBox="0 0 24 20" fill="none" xmlns="http://www.w3.org/2000/svg">
<path d="M22.766 0H15.1064C14.4279 0.0005014 13.7604 0.171786 13.1654 0.498067C12.5705 0.824348 12.0673 1.29513 11.7021 1.86702C11.337 1.29513 10.8337 0.824348 10.2388 0.498067C9.64388 0.171786 8.9764 0.0005014 8.29787 0H0.638298C0.469011 0 0.306657 0.067249 0.186953 0.186953C0.067249 0.306657 0 0.469011 0 0.638298V15.9574C0 16.1267 0.067249 16.2891 0.186953 16.4088C0.306657 16.5285 0.469011 16.5957 0.638298 16.5957H8.29787C9.03145 16.5957 9.73498 16.8872 10.2537 17.4059C10.7724 17.9246 11.0638 18.6281 11.0638 19.3617C11.0638 19.531 11.1311 19.6933 11.2508 19.813C11.3705 19.9328 11.5328 20 11.7021 20C11.8714 20 12.0338 19.9328 12.1535 19.813C12.2732 19.6933 12.3404 19.531 12.3404 19.3617C12.3404 18.6281 12.6318 17.9246 13.1506 17.4059C13.6693 16.8872 14.3728 16.5957 15.1064 16.5957H22.766C22.9352 16.5957 23.0976 16.5285 23.2173 16.4088C23.337 16.2891 23.4043 16.1267 23.4043 15.9574V0.638298C23.4043 0.469011 23.337 0.306657 23.2173 0.186953C23.0976 0.067249 22.9352 0 22.766 0ZM8.29787 15.3191H1.2766V1.2766H8.29787C9.03145 1.2766 9.73498 1.56801 10.2537 2.08673C10.7724 2.60544 11.0638 3.30898 11.0638 4.04255V16.416C10.3156 15.7107 9.32606 15.3183 8.29787 15.3191ZM22.1277 15.3191H15.1064C14.0781 15.3187 13.0885 15.7115 12.3404 16.417V4.04255C12.3404 3.30898 12.6318 2.60544 13.1506 2.08673C13.6693 1.56801 14.3728 1.2766 15.1064 1.2766H22.1277V15.3191ZM15.1064 4.25532H19.3617C19.531 4.25532 19.6933 4.32257 19.813 4.44227C19.9328 4.56198 20 4.72433 20 4.89362C20 5.0629 19.9328 5.22526 19.813 5.34496C19.6933 5.46467 19.531 5.53192 19.3617 5.53192H15.1064C14.9371 5.53192 14.7747 5.46467 14.655 5.34496C14.5353 5.22526 14.4681 5.0629 14.4681 4.89362C14.4681 4.72433 14.5353 4.56198 14.655 4.44227C14.7747 4.32257 14.9371 4.25532 15.1064 4.25532ZM20 8.29787C20 8.46716 19.9328 8.62951 19.813 8.74922C19.6933 8.86892 19.531 8.93617 19.3617 8.93617H15.1064C14.9371 8.93617 14.7747 8.86892 14.655 8.74922C14.5353 8.62951 14.4681 8.46716 14.4681 8.29787C14.4681 8.12859 14.5353 7.96623 14.655 7.84653C14.7747 7.72682 14.9371 7.65957 15.1064 7.65957H19.3617C19.531 7.65957 19.6933 7.72682 19.813 7.84653C19.9328 7.96623 20 8.12859 20 8.29787ZM20 11.7021C20 11.8714 19.9328 12.0338 19.813 12.1535C19.6933 12.2732 19.531 12.3404 19.3617 12.3404H15.1064C14.9371 12.3404 14.7747 12.2732 14.655 12.1535C14.5353 12.0338 14.4681 11.8714 14.4681 11.7021C14.4681 11.5328 14.5353 11.3705 14.655 11.2508C14.7747 11.1311 14.9371 11.0638 15.1064 11.0638H19.3617C19.531 11.0638 19.6933 11.1311 19.813 11.2508C19.9328 11.3705 20 11.5328 20 11.7021Z" fill="#335341"/>
</svg>
