<svg width="40" height="41" viewBox="0 0 40 41" fill="none" xmlns="http://www.w3.org/2000/svg">
<g clip-path="url(#clip0_29_1553)">
<path d="M30.5257 6.37215C30.5047 9.29538 26.8769 6.60348 29.9369 5.93051C26.8769 6.60348 28.307 2.31326 30.1682 5.2365C28.307 2.31326 32.8286 2.35532 30.9043 5.2365C32.8286 2.35532 34.185 6.65606 31.1251 5.94102C34.185 6.66657 30.5047 9.28487 30.5257 6.37215Z" fill="#177333"/>
<path d="M30.5464 9.43225C35.7724 9.4323 40.0103 13.6701 40.0103 18.8961C40.0102 24.1221 35.7724 28.3599 30.5464 28.36H21.0825V18.8961C21.0825 13.67 25.3203 9.43225 30.5464 9.43225ZM31.2622 18.6012C35.0684 12.8812 26.1208 12.8076 29.8003 18.5905C26.1201 12.7975 23.2712 21.2933 29.3384 19.9684C23.2711 21.2828 30.4633 26.614 30.5054 20.8307H30.5161C30.4741 26.6245 37.7709 21.4199 31.7036 19.9899C37.7603 21.4199 35.0687 12.8812 31.2622 18.6012Z" fill="#177333"/>
<path d="M9.89822 28.1638C4.30873 24.3595 2.8508 16.7275 6.66104 11.1293C12.2505 14.9336 13.7085 22.5656 9.89822 28.1638Z" fill="#177333"/>
<path d="M4.13249 19.8633C2.88118 19.2534 1.48265 18.8959 0 18.8959C0 23.9537 3.96425 28.0652 8.95899 28.3386C6.31966 26.1199 4.67929 23.0915 4.14301 19.8738L4.13249 19.8633Z" fill="#177333"/>
<path d="M19.9793 0C14.7638 0 10.5367 4.21662 10.5156 9.42166V13.9958C13.0919 18.2965 13.2601 23.796 10.6103 28.3386C15.7943 28.286 19.9793 24.0694 19.9793 18.8749V0Z" fill="#177333"/>
</g>
<path d="M39.8555 40.4995H39.7314C37.5575 40.4993 35.7949 38.7369 35.7949 36.563V31.3862H37.1895V36.5093C37.1895 37.9135 38.3273 39.052 39.7314 39.0522H39.8555V40.4995Z" fill="#177333" stroke="#177333" stroke-width="0.247258"/>
<path d="M19.9902 31.3997C20.6108 31.3997 21.2009 31.5183 21.7588 31.7561C22.315 31.9932 22.8035 32.3224 23.2236 32.7424C23.6438 33.1626 23.9728 33.6519 24.21 34.2083C24.4477 34.7661 24.5664 35.3562 24.5664 35.9768C24.5664 36.5971 24.4483 37.1909 24.2109 37.7571L24.21 37.7581C23.9728 38.3145 23.6439 38.8036 23.2236 39.2239C22.8035 39.644 22.3151 39.9731 21.7588 40.2102C21.2009 40.448 20.6108 40.5667 19.9902 40.5667C19.3703 40.5666 18.7811 40.4523 18.2236 40.2239L18.2217 40.2229C17.6736 39.9854 17.1885 39.652 16.7686 39.2229V39.2219C16.349 38.802 16.0201 38.3138 15.7832 37.7581V37.7571C15.5458 37.1909 15.4268 36.5972 15.4268 35.9768C15.4268 35.3571 15.5409 34.7718 15.7695 34.2229L15.7705 34.2219C16.0078 33.6652 16.3406 33.1713 16.7695 32.7424C17.1894 32.3225 17.6742 31.9943 18.2217 31.7571V31.7561C18.7795 31.5183 19.3697 31.3997 19.9902 31.3997ZM19.9902 32.8606C19.5712 32.8606 19.1698 32.9414 18.7852 33.1038L18.7842 33.1047C18.4085 33.2584 18.0749 33.48 17.7842 33.7708C17.494 34.061 17.2672 34.3978 17.1045 34.7825L17.1055 34.7834C16.9518 35.1592 16.874 35.5568 16.874 35.9768C16.8741 36.4047 16.9558 36.8148 17.1182 37.2083L17.251 37.4875C17.3955 37.7574 17.573 37.998 17.7842 38.2092C18.0753 38.5004 18.4095 38.7263 18.7861 38.8889C19.1704 39.0422 19.5714 39.1194 19.9902 39.1194C20.4096 39.1194 20.8064 39.0422 21.1816 38.8889C21.5671 38.7262 21.9056 38.4999 22.1963 38.2092C22.4778 37.9278 22.6993 37.5942 22.8623 37.2083C23.0247 36.8148 23.1064 36.4047 23.1064 35.9768C23.1064 35.5578 23.0253 35.1606 22.8633 34.7854L22.8623 34.7825C22.7085 34.398 22.4865 34.061 22.1963 33.7708C21.9061 33.4805 21.569 33.2585 21.1846 33.1047L21.1807 33.1038V33.1028C20.8056 32.941 20.409 32.8606 19.9902 32.8606Z" fill="#177333" stroke="#177333" stroke-width="0.247258"/>
<path d="M4.19873 31.3862V32.8335H4.07471C2.72558 32.8336 1.61018 33.8952 1.54443 35.2261H4.03174V36.6733H1.53857V40.4995H0.144043V35.2603C0.144043 33.1211 1.87894 31.3862 4.01807 31.3862H4.19873Z" fill="#177333" stroke="#177333" stroke-width="0.247258"/>
<defs>
<clipPath id="clip0_29_1553">
<rect width="40" height="28.3491" fill="white"/>
</clipPath>
</defs>
</svg>
