<svg width="23" height="24" viewBox="0 0 23 24" fill="none" xmlns="http://www.w3.org/2000/svg">
<path d="M21.8996 17.5323C21.2592 16.4292 20.3072 13.3079 20.3072 9.23117C20.3072 6.78291 19.3347 4.43493 17.6035 2.70375C15.8723 0.972567 13.5243 0 11.0761 0C8.62781 0 6.27982 0.972567 4.54864 2.70375C2.81746 4.43493 1.8449 6.78291 1.8449 9.23117C1.8449 13.309 0.891778 16.4292 0.251366 17.5323C0.0878247 17.8127 0.00112539 18.1314 1.08824e-05 18.456C-0.00110362 18.7806 0.0834063 19.0998 0.245018 19.3814C0.40663 19.663 0.639628 19.8969 0.920516 20.0597C1.2014 20.2225 1.52025 20.3083 1.8449 20.3086H6.55395C6.76692 21.3507 7.33331 22.2873 8.15732 22.96C8.98133 23.6326 10.0124 24 11.0761 24C12.1398 24 13.1708 23.6326 13.9948 22.96C14.8188 22.2873 15.3852 21.3507 15.5982 20.3086H20.3072C20.6318 20.3081 20.9505 20.2221 21.2312 20.0593C21.5119 19.8964 21.7448 19.6624 21.9062 19.3809C22.0677 19.0994 22.1521 18.7803 22.151 18.4557C22.1498 18.1312 22.0631 17.8127 21.8996 17.5323ZM11.0761 22.1548C10.5035 22.1546 9.94511 21.977 9.47768 21.6464C9.01026 21.3157 8.6568 20.8484 8.46595 20.3086H13.6862C13.4953 20.8484 13.1419 21.3157 12.6744 21.6464C12.207 21.977 11.6486 22.1546 11.0761 22.1548ZM1.8449 18.4623C2.7334 16.9346 3.69113 13.3944 3.69113 9.23117C3.69113 7.27256 4.46918 5.39417 5.85413 4.00923C7.23907 2.62429 9.11746 1.84623 11.0761 1.84623C13.0347 1.84623 14.9131 2.62429 16.298 4.00923C17.6829 5.39417 18.461 7.27256 18.461 9.23117C18.461 13.391 19.4164 16.9311 20.3072 18.4623H1.8449Z" fill="#082F19"/>
</svg>
