<svg width="19" height="20" viewBox="0 0 19 20" fill="none" xmlns="http://www.w3.org/2000/svg">
<path d="M17.8835 4.53745L9.88355 0.157485C9.69651 0.0541837 9.48632 0 9.27265 0C9.05897 0 8.84879 0.0541837 8.66174 0.157485L0.661812 4.53745C0.461637 4.64697 0.294589 4.8083 0.178157 5.00454C0.0617248 5.20078 0.000191696 5.42471 0 5.65289V14.3474C0.000191696 14.5755 0.0617248 14.7995 0.178157 14.9957C0.294589 15.192 0.461637 15.3533 0.661812 15.4628L8.66174 19.8428C8.84884 19.9459 9.05901 20 9.27265 20C9.48629 20 9.69645 19.9459 9.88355 19.8428L17.8835 15.4628C18.0837 15.3533 18.2507 15.192 18.3671 14.9957C18.4836 14.7995 18.5451 14.5755 18.5453 14.3474V5.65289C18.5451 5.42471 18.4836 5.20078 18.3671 5.00454C18.2507 4.8083 18.0837 4.64697 17.8835 4.53745ZM9.18174 1.11384C9.2085 1.0992 9.23851 1.09153 9.26901 1.09153C9.29951 1.09153 9.32953 1.0992 9.35628 1.11384L16.9553 5.2729L13.8699 6.96106L6.18631 2.75565L9.18174 1.11384ZM8.7272 18.6364L1.18181 14.5065C1.15393 14.4904 1.13082 14.4671 1.11485 14.4392C1.09888 14.4112 1.09061 14.3796 1.0909 14.3474V6.24198L8.7272 10.4238V18.6364ZM1.58999 5.2729L5.05087 3.37746L12.7335 7.58288L9.27265 9.4765L1.58999 5.2729ZM17.4544 14.3474C17.4547 14.3796 17.4464 14.4112 17.4304 14.4392C17.4145 14.4671 17.3914 14.4904 17.3635 14.5065L9.8181 18.6364V10.4219L13.0908 8.63014V12.1819C13.0908 12.3266 13.1483 12.4653 13.2506 12.5676C13.3528 12.6699 13.4916 12.7274 13.6362 12.7274C13.7809 12.7274 13.9196 12.6699 14.0219 12.5676C14.1242 12.4653 14.1817 12.3266 14.1817 12.1819V8.03378L17.4544 6.24198V14.3474Z" fill="#335341"/>
</svg>
