<svg width="22" height="18" viewBox="0 0 22 18" fill="none" xmlns="http://www.w3.org/2000/svg">
<path d="M16.5349 3.34884H1.46512C1.07654 3.34884 0.703885 3.5032 0.429123 3.77796C0.15436 4.05272 0 4.42538 0 4.81395V16.5349C0 16.9235 0.15436 17.2961 0.429123 17.5709C0.703885 17.8456 1.07654 18 1.46512 18H16.5349C16.9235 18 17.2961 17.8456 17.5709 17.5709C17.8456 17.2961 18 16.9235 18 16.5349V4.81395C18 4.42538 17.8456 4.05272 17.5709 3.77796C17.2961 3.5032 16.9235 3.34884 16.5349 3.34884ZM16.7442 16.5349C16.7442 16.5904 16.7221 16.6436 16.6829 16.6829C16.6436 16.7221 16.5904 16.7442 16.5349 16.7442H1.46512C1.40961 16.7442 1.35637 16.7221 1.31712 16.6829C1.27787 16.6436 1.25581 16.5904 1.25581 16.5349V4.81395C1.25581 4.75844 1.27787 4.70521 1.31712 4.66595C1.35637 4.6267 1.40961 4.60465 1.46512 4.60465H16.5349C16.5904 4.60465 16.6436 4.6267 16.6829 4.66595C16.7221 4.70521 16.7442 4.75844 16.7442 4.81395V16.5349ZM21.3488 1.46512V14.0233C21.3488 14.1898 21.2827 14.3495 21.1649 14.4673C21.0472 14.585 20.8875 14.6512 20.7209 14.6512C20.5544 14.6512 20.3947 14.585 20.2769 14.4673C20.1592 14.3495 20.093 14.1898 20.093 14.0233V1.46512C20.093 1.40961 20.071 1.35637 20.0317 1.31712C19.9925 1.27787 19.9392 1.25581 19.8837 1.25581H3.97674C3.81021 1.25581 3.6505 1.18966 3.53275 1.0719C3.41499 0.954149 3.34884 0.794438 3.34884 0.627907C3.34884 0.461376 3.41499 0.301665 3.53275 0.18391C3.6505 0.0661542 3.81021 0 3.97674 0H19.8837C20.2723 0 20.645 0.15436 20.9197 0.429123C21.1945 0.703885 21.3488 1.07654 21.3488 1.46512Z" fill="#082F19" fill-opacity="0.8"/>
</svg>
