<svg width="23" height="18" viewBox="0 0 23 18" fill="none" xmlns="http://www.w3.org/2000/svg">
<path d="M22.56 0.574394C22.5516 0.434178 22.4921 0.301903 22.3928 0.202577C22.2935 0.103251 22.1612 0.0437588 22.021 0.0353486C17.138 -0.251887 13.2239 1.2245 11.5513 3.98579C10.4377 5.82505 10.4617 8.07219 11.602 10.2092C10.8709 11.0462 10.3613 12.0532 10.1199 13.1381L8.22412 11.2414C9.00444 9.69986 8.99965 8.08655 8.19348 6.7557C6.96699 4.73069 4.11665 3.64494 0.564512 3.85558C0.424141 3.86401 0.291739 3.92364 0.192391 4.02316C0.0930435 4.12269 0.0336512 4.2552 0.0254669 4.39558C-0.183257 7.94677 0.900577 10.7971 2.92559 12.0236C3.5851 12.4267 4.34329 12.6394 5.11623 12.6383C5.91671 12.6301 6.70398 12.4333 7.41412 12.0638L9.9571 14.5991V17.4255C9.9571 17.5779 10.0176 17.724 10.1254 17.8317C10.2331 17.9395 10.3792 18 10.5316 18C10.6839 18 10.8301 17.9395 10.9378 17.8317C11.0455 17.724 11.106 17.5779 11.106 17.4255V14.602C11.1022 13.286 11.5695 12.012 12.4235 11.0106C13.4968 11.5784 14.5988 11.8637 15.6616 11.8637C16.7011 11.8671 17.7213 11.5831 18.6096 11.0432C21.3709 9.37241 22.8473 5.45739 22.56 0.574394ZM3.52112 11.0403C1.95952 10.0953 1.09015 7.85102 1.14856 4.97867C4.02091 4.91643 6.2623 5.78676 7.20731 7.34836C7.75114 8.24549 7.7971 9.29964 7.35475 10.3729L4.80985 7.82708C4.70206 7.71929 4.55585 7.65873 4.40341 7.65873C4.25097 7.65873 4.10477 7.71929 3.99697 7.82708C3.88918 7.93488 3.82862 8.08108 3.82862 8.23352C3.82862 8.38597 3.88918 8.53217 3.99697 8.63996L6.54571 11.1877C5.47241 11.6301 4.41825 11.5851 3.52112 11.0403ZM18.015 10.0618C16.6037 10.9158 14.9378 10.9407 13.2594 10.1479L18.5981 4.81016C18.6515 4.75678 18.6938 4.69342 18.7227 4.62368C18.7516 4.55394 18.7665 4.4792 18.7665 4.40372C18.7665 4.32824 18.7516 4.25349 18.7227 4.18376C18.6938 4.11402 18.6515 4.05065 18.5981 3.99728C18.5447 3.94391 18.4814 3.90157 18.4116 3.87268C18.3419 3.8438 18.2671 3.82893 18.1917 3.82893C18.1162 3.82893 18.0414 3.8438 17.9717 3.87268C17.902 3.90157 17.8386 3.94391 17.7852 3.99728L12.4465 9.33603C11.6537 7.65762 11.6805 5.99165 12.5326 4.58133C13.9229 2.28344 17.2299 1.02152 21.4369 1.15844C21.5739 5.36165 20.311 8.6706 18.015 10.0618Z" fill="#082F19" fill-opacity="0.8"/>
</svg>
