<svg width="19" height="20" viewBox="0 0 19 20" fill="none" xmlns="http://www.w3.org/2000/svg">
<path d="M16.519 10.2809C16.321 10.1691 16.1135 10.0751 15.899 10C16.1135 9.9249 16.321 9.8309 16.519 9.71909C16.9118 9.49226 17.2562 9.19027 17.5324 8.83035C17.8086 8.47044 18.0112 8.05965 18.1286 7.62144C18.246 7.18323 18.276 6.72619 18.2168 6.2764C18.1576 5.82661 18.0103 5.39289 17.7835 5C17.5567 4.60711 17.2547 4.26274 16.8948 3.98656C16.5348 3.71038 16.1241 3.5078 15.6859 3.39037C15.2476 3.27295 14.7906 3.24299 14.3408 3.30219C13.891 3.3614 13.4573 3.50863 13.0644 3.73545C12.8691 3.85139 12.6842 3.98401 12.5117 4.13182C12.5535 3.90842 12.5757 3.6818 12.578 3.45455C12.578 2.53834 12.2141 1.65967 11.5662 1.01181C10.9184 0.36396 10.0397 0 9.1235 0C8.2073 0 7.32862 0.36396 6.68077 1.01181C6.03291 1.65967 5.66895 2.53834 5.66895 3.45455C5.67132 3.6818 5.69352 3.90842 5.73532 4.13182C5.56285 3.98401 5.37792 3.85139 5.18259 3.73545C4.38911 3.27735 3.44615 3.15322 2.56115 3.39037C1.67615 3.62752 0.921601 4.20652 0.4635 5C0.00539897 5.79348 -0.118731 6.73644 0.118417 7.62144C0.355565 8.50644 0.934566 9.26099 1.72805 9.71909C1.92599 9.8309 2.13347 9.9249 2.34805 10C2.13347 10.0751 1.92599 10.1691 1.72805 10.2809C1.13616 10.6224 0.658859 11.1318 0.356518 11.7447C0.0541771 12.3575 -0.0596202 13.0462 0.0295208 13.7237C0.118662 14.4012 0.406736 15.0371 0.857304 15.5508C1.30787 16.0646 1.90069 16.4332 2.56077 16.61C2.85434 16.6886 3.15688 16.7286 3.46077 16.7291C4.06558 16.7284 4.6595 16.5681 5.18259 16.2645C5.37792 16.1486 5.56285 16.016 5.73532 15.8682C5.69352 16.0916 5.67132 16.3182 5.66895 16.5455C5.66895 17.4617 6.03291 18.3403 6.68077 18.9882C7.32862 19.636 8.2073 20 9.1235 20C10.0397 20 10.9184 19.636 11.5662 18.9882C12.2141 18.3403 12.578 17.4617 12.578 16.5455C12.5757 16.3182 12.5535 16.0916 12.5117 15.8682C12.6842 16.016 12.8691 16.1486 13.0644 16.2645C13.5877 16.5675 14.1816 16.7271 14.7862 16.7273C15.0901 16.7268 15.3927 16.6868 15.6862 16.6082C16.3463 16.4314 16.9391 16.0628 17.3897 15.549C17.8403 15.0353 18.1283 14.3994 18.2175 13.7219C18.3066 13.0444 18.1928 12.3557 17.8905 11.7428C17.5881 11.13 17.1108 10.6206 16.519 10.2791V10.2809ZM13.6099 4.68C13.8789 4.51235 14.179 4.40053 14.4921 4.35121C14.8053 4.30189 15.1252 4.31607 15.4328 4.39291C15.7403 4.46976 16.0293 4.60768 16.2825 4.79849C16.5356 4.9893 16.7478 5.22909 16.9064 5.50359C17.065 5.77809 17.1668 6.08169 17.2057 6.39633C17.2445 6.71096 17.2197 7.0302 17.1327 7.33504C17.0456 7.63988 16.8981 7.92409 16.699 8.17077C16.4999 8.41744 16.2531 8.62154 15.9735 8.77091C15.5399 9.02091 14.6171 9.33 12.6644 9.45L12.5335 9.44273C12.3962 8.61073 11.9594 7.85766 11.3053 7.32545L11.3653 7.20636C12.4471 5.57545 13.1762 4.93091 13.6099 4.68ZM9.1235 12.3636C8.65602 12.3636 8.19903 12.225 7.81033 11.9653C7.42164 11.7056 7.11868 11.3364 6.93978 10.9045C6.76089 10.4726 6.71408 9.99738 6.80528 9.53888C6.89648 9.08038 7.1216 8.65922 7.45216 8.32866C7.78272 7.9981 8.20388 7.77298 8.66238 7.68178C9.12088 7.59058 9.59613 7.63739 10.028 7.81629C10.4599 7.99518 10.8291 8.29814 11.0888 8.68683C11.3485 9.07553 11.4871 9.53252 11.4871 10C11.4871 10.6269 11.2381 11.2281 10.7948 11.6713C10.3516 12.1146 9.75038 12.3636 9.1235 12.3636ZM9.1235 1.09091C9.75038 1.09091 10.3516 1.33993 10.7948 1.7832C11.2381 2.22647 11.4871 2.82767 11.4871 3.45455C11.4871 3.95545 11.2935 4.90909 10.4208 6.66091C10.3971 6.69727 10.3726 6.73364 10.349 6.77091C9.55855 6.46942 8.68482 6.46942 7.89441 6.77091L7.82259 6.66C6.9535 4.90909 6.75986 3.95545 6.75986 3.45455C6.75986 2.82767 7.00889 2.22647 7.45216 1.7832C7.89542 1.33993 8.49662 1.09091 9.1235 1.09091ZM2.2735 8.77455C1.75303 8.45024 1.37897 7.93634 1.23033 7.34138C1.08169 6.74643 1.17011 6.11699 1.4769 5.586C1.78369 5.05502 2.28484 4.66405 2.87452 4.49568C3.46419 4.3273 4.09623 4.3947 4.63714 4.68364C5.07077 4.93455 5.79986 5.57909 6.87986 7.21L6.93986 7.32909C6.2857 7.8625 5.84945 8.61695 5.7135 9.45L5.58259 9.45727C3.62986 9.33364 2.70714 9.02455 2.2735 8.77455ZM4.63714 15.32C4.09623 15.6089 3.46419 15.6763 2.87452 15.508C2.28484 15.3396 1.78369 14.9486 1.4769 14.4176C1.17011 13.8866 1.08169 13.2572 1.23033 12.6623C1.37897 12.0673 1.75303 11.5534 2.2735 11.2291C2.70714 10.9791 3.62986 10.67 5.58259 10.55L5.7135 10.5573C5.85076 11.3893 6.2876 12.1423 6.94168 12.6745L6.88168 12.7936C5.79986 14.4245 5.07077 15.0691 4.63714 15.32ZM9.1235 18.9091C8.8131 18.9091 8.50575 18.848 8.21898 18.7292C7.93221 18.6104 7.67164 18.4363 7.45216 18.2168C7.23267 17.9973 7.05857 17.7367 6.93978 17.45C6.821 17.1632 6.75986 16.8559 6.75986 16.5455C6.75986 16.0445 6.9535 15.0909 7.82623 13.3391C7.84986 13.3027 7.87441 13.2664 7.89805 13.2291C8.68845 13.5306 9.56218 13.5306 10.3526 13.2291L10.4244 13.34C11.2935 15.0909 11.4871 16.0445 11.4871 16.5455C11.4871 16.8559 11.426 17.1632 11.3072 17.45C11.1884 17.7367 11.0143 17.9973 10.7948 18.2168C10.5754 18.4363 10.3148 18.6104 10.028 18.7292C9.74125 18.848 9.4339 18.9091 9.1235 18.9091ZM16.839 14.4545C16.6838 14.7234 16.4772 14.9591 16.2309 15.1481C15.9846 15.3371 15.7035 15.4758 15.4037 15.5561C15.1038 15.6365 14.7911 15.657 14.4833 15.6165C14.1755 15.576 13.8787 15.4752 13.6099 15.32C13.1762 15.0691 12.4471 14.4245 11.3671 12.7936L11.3071 12.6745C11.9613 12.1411 12.3975 11.3867 12.5335 10.5536L12.669 10.5455C14.6217 10.6655 15.5444 10.9745 15.978 11.2245C16.2467 11.3801 16.482 11.587 16.6707 11.8335C16.8593 12.0801 16.9975 12.3613 17.0775 12.6612C17.1574 12.9612 17.1775 13.2739 17.1366 13.5816C17.0957 13.8893 16.9945 14.1859 16.839 14.4545Z" fill="#335341"/>
</svg>
