<svg width="17" height="17" viewBox="0 0 17 17" fill="none" xmlns="http://www.w3.org/2000/svg">
<path d="M7.49707 0C11.6376 0 14.9941 3.35654 14.9941 7.49707C14.9941 9.26721 14.3785 10.8923 13.3525 12.1748L16.416 15.2383C16.7413 15.5636 16.7413 16.0907 16.416 16.416C16.0907 16.7413 15.5636 16.7413 15.2383 16.416L12.1748 13.3525C10.8923 14.3785 9.26721 14.9941 7.49707 14.9941C3.35654 14.9941 0 11.6376 0 7.49707C4.3037e-05 3.35657 3.35657 4.30357e-05 7.49707 0ZM7.49707 1.66602C4.27669 1.66606 1.66606 4.27669 1.66602 7.49707C1.66602 10.7175 4.27667 13.3281 7.49707 13.3281C10.7175 13.3281 13.3281 10.7175 13.3281 7.49707C13.3281 4.27667 10.7175 1.66602 7.49707 1.66602Z" fill="#677E6F"/>
</svg>
