<svg width="24" height="20" viewBox="0 0 24 20" fill="none" xmlns="http://www.w3.org/2000/svg">
<path d="M22.5497 18.8235H20.7849V7.6467C20.7849 7.28267 20.6403 6.93355 20.3829 6.67614C20.1255 6.41872 19.7764 6.27411 19.4123 6.27411H12.9416V1.37201C12.9414 1.12358 12.8739 0.879835 12.7462 0.666767C12.6184 0.453699 12.4352 0.279298 12.2162 0.162159C11.9971 0.0450209 11.7503 -0.0104623 11.5022 0.00162623C11.254 0.0137147 11.0138 0.0929216 10.8072 0.230801L2.96381 5.45938C2.77585 5.58479 2.62176 5.75465 2.51521 5.9539C2.40866 6.15315 2.35294 6.37562 2.35301 6.60157V18.8235H0.588252C0.432238 18.8235 0.282614 18.8855 0.172295 18.9958C0.0619764 19.1061 0 19.2557 0 19.4117C0 19.5678 0.0619764 19.7174 0.172295 19.8277C0.282614 19.938 0.432238 20 0.588252 20H22.5497C22.7057 20 22.8553 19.938 22.9656 19.8277C23.0759 19.7174 23.1379 19.5678 23.1379 19.4117C23.1379 19.2557 23.0759 19.1061 22.9656 18.9958C22.8553 18.8855 22.7057 18.8235 22.5497 18.8235ZM19.4123 7.45062C19.4643 7.45062 19.5142 7.47128 19.551 7.50805C19.5878 7.54482 19.6084 7.5947 19.6084 7.6467V18.8235H12.9416V7.45062H19.4123ZM3.52951 6.60157C3.52957 6.56937 3.53757 6.53767 3.55278 6.50928C3.568 6.4809 3.58998 6.4567 3.61677 6.43882L11.4601 1.20926C11.4896 1.18958 11.5239 1.17826 11.5594 1.17652C11.5948 1.17479 11.63 1.18269 11.6613 1.19939C11.6926 1.21609 11.7188 1.24096 11.737 1.27136C11.7553 1.30176 11.765 1.33654 11.765 1.37201V18.8235H3.52951V6.60157ZM9.8042 9.21538V10.784C9.8042 10.9401 9.74223 11.0897 9.63191 11.2C9.52159 11.3103 9.37197 11.3723 9.21595 11.3723C9.05994 11.3723 8.91031 11.3103 8.8 11.2C8.68968 11.0897 8.6277 10.9401 8.6277 10.784V9.21538C8.6277 9.05936 8.68968 8.90974 8.8 8.79942C8.91031 8.6891 9.05994 8.62712 9.21595 8.62712C9.37197 8.62712 9.52159 8.6891 9.63191 8.79942C9.74223 8.90974 9.8042 9.05936 9.8042 9.21538ZM6.66686 9.21538V10.784C6.66686 10.9401 6.60488 11.0897 6.49456 11.2C6.38425 11.3103 6.23462 11.3723 6.07861 11.3723C5.92259 11.3723 5.77297 11.3103 5.66265 11.2C5.55233 11.0897 5.49035 10.9401 5.49035 10.784V9.21538C5.49035 9.05936 5.55233 8.90974 5.66265 8.79942C5.77297 8.6891 5.92259 8.62712 6.07861 8.62712C6.23462 8.62712 6.38425 8.6891 6.49456 8.79942C6.60488 8.90974 6.66686 9.05936 6.66686 9.21538ZM6.66686 14.7057V16.2744C6.66686 16.4304 6.60488 16.58 6.49456 16.6904C6.38425 16.8007 6.23462 16.8627 6.07861 16.8627C5.92259 16.8627 5.77297 16.8007 5.66265 16.6904C5.55233 16.58 5.49035 16.4304 5.49035 16.2744V14.7057C5.49035 14.5497 5.55233 14.4001 5.66265 14.2898C5.77297 14.1795 5.92259 14.1175 6.07861 14.1175C6.23462 14.1175 6.38425 14.1795 6.49456 14.2898C6.60488 14.4001 6.66686 14.5497 6.66686 14.7057ZM9.8042 14.7057V16.2744C9.8042 16.4304 9.74223 16.58 9.63191 16.6904C9.52159 16.8007 9.37197 16.8627 9.21595 16.8627C9.05994 16.8627 8.91031 16.8007 8.8 16.6904C8.68968 16.58 8.6277 16.4304 8.6277 16.2744V14.7057C8.6277 14.5497 8.68968 14.4001 8.8 14.2898C8.91031 14.1795 9.05994 14.1175 9.21595 14.1175C9.37197 14.1175 9.52159 14.1795 9.63191 14.2898C9.74223 14.4001 9.8042 14.5497 9.8042 14.7057Z" fill="#335341"/>
</svg>
