<svg width="22" height="20" viewBox="0 0 22 20" fill="none" xmlns="http://www.w3.org/2000/svg">
<path d="M10.7845 5.49025C9.89256 5.49025 9.02064 5.75475 8.27901 6.25029C7.53738 6.74583 6.95935 7.45016 6.61801 8.27422C6.27668 9.09827 6.18737 10.005 6.36138 10.8799C6.53539 11.7547 6.96491 12.5582 7.59561 13.1889C8.22632 13.8196 9.02988 14.2492 9.90469 14.4232C10.7795 14.5972 11.6863 14.5079 12.5103 14.1665C13.3344 13.8252 14.0387 13.2472 14.5343 12.5055C15.0298 11.7639 15.2943 10.892 15.2943 10C15.2927 8.80445 14.8171 7.65827 13.9717 6.81286C13.1263 5.96745 11.9801 5.49181 10.7845 5.49025ZM10.7845 13.3334C10.1252 13.3334 9.48078 13.1379 8.93262 12.7716C8.38446 12.4053 7.95722 11.8847 7.70492 11.2756C7.45263 10.6666 7.38662 9.99634 7.51524 9.34974C7.64386 8.70314 7.96132 8.1092 8.4275 7.64303C8.89367 7.17685 9.48761 6.85938 10.1342 6.73077C10.7808 6.60215 11.451 6.66816 12.0601 6.92045C12.6692 7.17274 13.1898 7.59998 13.5561 8.14815C13.9223 8.69631 14.1178 9.34077 14.1178 10C14.1178 10.8841 13.7666 11.7319 13.1415 12.3571C12.5164 12.9822 11.6686 13.3334 10.7845 13.3334ZM21.3727 8.00005C21.3556 7.91807 21.3213 7.84068 21.2719 7.77306C21.2225 7.70543 21.1593 7.64912 21.0864 7.60789L18.1021 5.90398L18.0609 5.83437L18.0492 2.47066C18.0492 2.3857 18.0308 2.30174 17.9952 2.22456C17.9597 2.14739 17.9079 2.07883 17.8433 2.0236C16.801 1.1423 15.6011 0.466647 14.307 0.0324352C14.2292 0.00627901 14.1468 -0.00330824 14.0651 0.00428979C13.9834 0.0118878 13.9042 0.036503 13.8325 0.0765527L10.8296 1.75106H10.7316L7.73648 0.0745919C7.66452 0.034424 7.58491 0.00982732 7.50283 0.0023961C7.42075 -0.00503512 7.33803 0.00486497 7.26002 0.0314548C5.96612 0.466932 4.76674 1.1443 3.72572 2.02752C3.66092 2.08246 3.60879 2.15078 3.57291 2.22778C3.53703 2.30479 3.51825 2.38865 3.51788 2.4736L3.50219 5.84025C3.48846 5.8628 3.47474 5.88633 3.46199 5.90986L0.481615 7.60495C0.408371 7.64681 0.344986 7.70393 0.295761 7.77243C0.246536 7.84094 0.212623 7.91924 0.196322 8.00201C-0.0654406 9.32183 -0.0654406 10.6802 0.196322 12C0.21338 12.082 0.247742 12.1594 0.29711 12.227C0.346479 12.2947 0.409716 12.351 0.482595 12.3922L3.46493 14.0912L3.50611 14.1608L3.51788 17.5245C3.5174 17.6105 3.53576 17.6955 3.57167 17.7735C3.60758 17.8516 3.66016 17.9209 3.72572 17.9765C4.768 18.8578 5.96795 19.5334 7.26198 19.9676C7.33977 19.9938 7.42218 20.0034 7.5039 19.9958C7.58562 19.9882 7.66485 19.9636 7.73648 19.9235L10.7375 18.249H10.8355L13.8316 19.9255C13.9192 19.9739 14.0177 19.9996 14.1178 20C14.1822 20.0003 14.2462 19.9897 14.307 19.9686C15.5992 19.5326 16.7969 18.8552 17.8364 17.9726C17.9012 17.9176 17.9534 17.8493 17.9892 17.7723C18.0251 17.6953 18.0439 17.6114 18.0443 17.5265L18.06 14.1598C18.0737 14.1373 18.0874 14.1137 18.1002 14.0902L21.0825 12.3951C21.1559 12.3534 21.2195 12.2963 21.2689 12.2278C21.3183 12.1593 21.3524 12.0809 21.3688 11.9981C21.6318 10.6785 21.6332 9.32012 21.3727 8.00005ZM20.2698 11.5089L17.3845 13.1471C17.2909 13.2006 17.2137 13.2786 17.161 13.3726C17.1031 13.4706 17.0423 13.5794 16.9786 13.6804C16.9206 13.7734 16.8897 13.8807 16.8894 13.9902L16.8737 17.2461C16.0625 17.896 15.1513 18.4102 14.1757 18.7686L11.2747 17.1451C11.187 17.0958 11.0881 17.0698 10.9875 17.0696H10.9737C10.8522 17.0696 10.7286 17.0696 10.6071 17.0696C10.5019 17.0671 10.3979 17.0928 10.3061 17.1441L7.39727 18.7676C6.42037 18.411 5.50785 17.8981 4.69532 17.249L4.68356 13.9971C4.68325 13.8875 4.65235 13.7802 4.59434 13.6873C4.5316 13.5892 4.46983 13.4834 4.41199 13.3794C4.35982 13.2853 4.28285 13.2073 4.18944 13.1539L1.30416 11.5098C1.13644 10.5106 1.13644 9.49044 1.30416 8.49122L4.18454 6.85299C4.27954 6.80003 4.3582 6.72204 4.41199 6.6275C4.46983 6.52947 4.53062 6.42064 4.59434 6.31966C4.65235 6.22672 4.68325 6.11942 4.68356 6.00986L4.69924 2.75399C5.50925 2.10445 6.41905 1.59029 7.39335 1.23145L10.2943 2.85497C10.3858 2.90716 10.49 2.93295 10.5953 2.92948C10.7169 2.92948 10.8404 2.92948 10.962 2.92948C11.0671 2.93201 11.1711 2.90628 11.2629 2.85497L14.1698 1.23145C15.1467 1.58809 16.0592 2.10097 16.8717 2.75007L16.8835 6.00202C16.8838 6.11158 16.9147 6.21887 16.9727 6.31182C17.0355 6.40986 17.0972 6.51574 17.1551 6.61966C17.2072 6.71376 17.2842 6.79175 17.3776 6.84515L20.2649 8.49024C20.4336 9.48929 20.4345 10.5095 20.2678 11.5089H20.2698Z" fill="#335341"/>
</svg>
