<svg width="20" height="20" viewBox="0 0 20 20" fill="none" xmlns="http://www.w3.org/2000/svg">
<path d="M11.3726 14.7059C11.3726 14.8619 11.3106 15.0115 11.2003 15.1218C11.0899 15.2321 10.9403 15.2941 10.7843 15.2941C10.4203 15.2941 10.0712 15.1495 9.81378 14.8921C9.55637 14.6347 9.41177 14.2856 9.41177 13.9216V10C9.41177 9.94799 9.39111 9.89812 9.35434 9.86135C9.31757 9.82458 9.26769 9.80392 9.21569 9.80392C9.05968 9.80392 8.91006 9.74194 8.79974 9.63163C8.68943 9.52131 8.62745 9.37169 8.62745 9.21568C8.62745 9.05967 8.68943 8.91006 8.79974 8.79974C8.91006 8.68942 9.05968 8.62745 9.21569 8.62745C9.57971 8.62745 9.92882 8.77206 10.1862 9.02946C10.4436 9.28686 10.5882 9.63598 10.5882 10V13.9216C10.5882 13.9736 10.6089 14.0234 10.6457 14.0602C10.6824 14.097 10.7323 14.1176 10.7843 14.1176C10.9403 14.1176 11.0899 14.1796 11.2003 14.2899C11.3106 14.4002 11.3726 14.5499 11.3726 14.7059ZM9.60785 6.66667C9.80175 6.66667 9.9913 6.60917 10.1525 6.50144C10.3137 6.39371 10.4394 6.2406 10.5136 6.06145C10.5878 5.88231 10.6072 5.68519 10.5694 5.49501C10.5316 5.30483 10.4382 5.13014 10.3011 4.99303C10.164 4.85592 9.98929 4.76255 9.79911 4.72472C9.60893 4.68689 9.41181 4.70631 9.23267 4.78051C9.05352 4.85471 8.90041 4.98037 8.79268 5.1416C8.68495 5.30282 8.62745 5.49237 8.62745 5.68627C8.62745 5.94629 8.73074 6.19566 8.9146 6.37952C9.09846 6.56337 9.34783 6.66667 9.60785 6.66667ZM20 10C20 11.9778 19.4135 13.9112 18.3147 15.5557C17.2159 17.2002 15.6541 18.4819 13.8268 19.2388C11.9996 19.9957 9.98891 20.1937 8.0491 19.8078C6.10929 19.422 4.32746 18.4696 2.92894 17.0711C1.53041 15.6725 0.578004 13.8907 0.192152 11.9509C-0.1937 10.0111 0.00433267 8.00043 0.761209 6.17316C1.51809 4.3459 2.79981 2.78412 4.4443 1.6853C6.08879 0.586489 8.02219 0 10 0C12.6512 0.00311358 15.1929 1.05768 17.0676 2.93237C18.9423 4.80706 19.9969 7.34879 20 10ZM18.8235 10C18.8235 8.25487 18.306 6.54893 17.3365 5.09791C16.367 3.64689 14.9889 2.51595 13.3766 1.84812C11.7643 1.18029 9.99021 1.00555 8.27862 1.34601C6.56702 1.68647 4.99482 2.52683 3.76083 3.76082C2.52683 4.99481 1.68647 6.56702 1.34602 8.27861C1.00556 9.99021 1.18029 11.7643 1.84813 13.3766C2.51596 14.9889 3.64689 16.367 5.09791 17.3365C6.54893 18.306 8.25487 18.8235 10 18.8235C12.3394 18.8209 14.5821 17.8905 16.2363 16.2363C17.8905 14.5821 18.8209 12.3393 18.8235 10Z" fill="#335341"/>
</svg>
