<svg width="29" height="20" viewBox="0 0 29 20" fill="none" xmlns="http://www.w3.org/2000/svg">
<path d="M13.8905 13.9023C15.3186 13.0928 16.4387 11.8334 17.076 10.3205C17.7133 8.80754 17.8318 7.12625 17.4132 5.53886C16.9947 3.95148 16.0624 2.54728 14.762 1.54532C13.4616 0.543362 11.8661 0 10.2245 0C8.58283 0 6.98734 0.543362 5.68692 1.54532C4.38651 2.54728 3.45429 3.95148 3.0357 5.53886C2.61711 7.12625 2.7357 8.80754 3.37296 10.3205C4.01022 11.8334 5.13031 13.0928 6.55849 13.9023C3.91152 14.7462 1.63831 16.4804 0.125076 18.8104C0.0135699 18.9812 -0.0255077 19.1893 0.0164397 19.389C0.0583871 19.5886 0.177924 19.7634 0.348752 19.8749C0.519581 19.9864 0.727709 20.0255 0.92735 19.9836C1.12699 19.9416 1.30179 19.8221 1.4133 19.6512C2.36775 18.1838 3.67361 16.9779 5.21233 16.1431C6.75105 15.3084 8.4739 14.8711 10.2245 14.8711C11.975 14.8711 13.6979 15.3084 15.2366 16.1431C16.7753 16.9779 18.0812 18.1838 19.0357 19.6512C19.1544 19.8035 19.3261 19.9054 19.5166 19.9369C19.7071 19.9684 19.9024 19.9271 20.0639 19.8212C20.2253 19.7153 20.341 19.5526 20.388 19.3653C20.435 19.178 20.4098 18.9799 20.3175 18.8104C18.8058 16.4816 16.5351 14.7475 13.8905 13.9023ZM4.32814 7.43814C4.32814 6.27195 4.67395 5.13196 5.32185 4.16231C5.96975 3.19266 6.89063 2.43691 7.96804 1.99063C9.04546 1.54435 10.231 1.42759 11.3748 1.6551C12.5186 1.88261 13.5692 2.44418 14.3938 3.2688C15.2184 4.09342 15.78 5.14404 16.0075 6.28782C16.235 7.4316 16.1183 8.61716 15.672 9.69457C15.2257 10.772 14.47 11.6929 13.5003 12.3408C12.5307 12.9887 11.3907 13.3345 10.2245 13.3345C8.66129 13.3324 7.16272 12.7106 6.05738 11.6052C4.95205 10.4999 4.33017 9.00132 4.32814 7.43814ZM28.5553 19.2713C28.3953 19.3757 28.2003 19.4124 28.0133 19.3732C27.8263 19.334 27.6624 19.2221 27.5578 19.0622C26.6646 17.6862 25.4411 16.5556 23.9991 15.7735C22.557 14.9913 20.9421 14.5825 19.3015 14.5843C19.1103 14.5843 18.9269 14.5084 18.7917 14.3731C18.6564 14.2379 18.5805 14.0545 18.5805 13.8633C18.5805 13.672 18.6564 13.4886 18.7917 13.3534C18.9269 13.2182 19.1103 13.1422 19.3015 13.1422C20.1156 13.1414 20.9195 12.9608 21.6556 12.6133C22.3918 12.2658 23.0422 11.76 23.5603 11.1321C24.0783 10.5041 24.4513 9.76951 24.6526 8.98071C24.8538 8.1919 24.8784 7.36839 24.7245 6.56899C24.5707 5.76959 24.2421 5.01405 23.7624 4.35633C23.2827 3.69861 22.6637 3.15496 21.9495 2.7642C21.2353 2.37345 20.4437 2.14525 19.6311 2.0959C18.8185 2.04654 18.0051 2.17726 17.2489 2.47871C17.1608 2.51477 17.0665 2.53304 16.9713 2.53247C16.8761 2.5319 16.782 2.51249 16.6944 2.47537C16.6068 2.43825 16.5274 2.38416 16.4607 2.3162C16.3941 2.24824 16.3416 2.16777 16.3062 2.07942C16.2709 1.99107 16.2533 1.89659 16.2546 1.80143C16.256 1.70627 16.2761 1.61232 16.3139 1.52498C16.3517 1.43764 16.4064 1.35865 16.4749 1.29257C16.5434 1.22648 16.6243 1.1746 16.7129 1.13992C18.3531 0.485992 20.1804 0.478949 21.8256 1.12021C23.4708 1.76147 24.8114 3.00324 25.5764 4.59468C26.3415 6.18611 26.474 8.00859 25.9473 9.69398C25.4205 11.3794 24.2738 12.802 22.7387 13.6746C25.2204 14.4658 27.3517 16.0917 28.7704 18.2762C28.8735 18.4368 28.9088 18.6317 28.8685 18.8182C28.8282 19.0047 28.7155 19.1677 28.5553 19.2713Z" fill="#335341"/>
</svg>
