<svg width="19" height="19" viewBox="0 0 19 19" fill="none" xmlns="http://www.w3.org/2000/svg">
<path d="M17.5 9.16665H15.4334C15.0692 9.16587 14.7148 9.2844 14.4243 9.50412C14.1339 9.72384 13.9234 10.0326 13.825 10.3833L11.8667 17.35C11.8541 17.3933 11.8278 17.4313 11.7917 17.4583C11.7556 17.4854 11.7118 17.5 11.6667 17.5C11.6216 17.5 11.5778 17.4854 11.5417 17.4583C11.5056 17.4313 11.4793 17.3933 11.4667 17.35L6.86671 0.983313C6.85409 0.940039 6.82777 0.902026 6.79171 0.87498C6.75565 0.847933 6.71178 0.833313 6.66671 0.833313C6.62163 0.833313 6.57777 0.847933 6.54171 0.87498C6.50565 0.902026 6.47933 0.940039 6.46671 0.983313L4.50837 7.94998C4.41043 8.29927 4.20119 8.60708 3.91243 8.82666C3.62366 9.04624 3.27114 9.16561 2.90837 9.16665H0.833374" stroke="#D08700" stroke-width="1.66667" stroke-linecap="round" stroke-linejoin="round"/>
</svg>
